<?xml version="1.0" standalone="no"?>
<!DOCTYPE svg PUBLIC "-//W3C//DTD SVG 20010904//EN"
 "http://www.w3.org/TR/2001/REC-SVG-20010904/DTD/svg10.dtd">
<svg version="1.0" xmlns="http://www.w3.org/2000/svg"
 width="260.000000pt" height="260.000000pt" viewBox="0 0 260.000000 260.000000"
 preserveAspectRatio="xMidYMid meet">
<metadata>
Created by potrace 1.14, written by Peter Selinger 2001-2017
</metadata>
<g transform="translate(0.000000,260.000000) scale(0.100000,-0.100000)"
fill="#000000" stroke="none">
<path d="M240 2040 c0 -5 13 -16 28 -24 15 -8 33 -26 40 -40 8 -18 12 -173 12
-543 1 -539 -1 -572 -41 -594 -40 -21 -17 -29 86 -29 58 0 105 4 105 8 0 5
-15 16 -34 24 -23 11 -41 32 -57 65 l-24 48 -3 458 c-2 279 1 457 6 457 9 0
135 -158 332 -419 53 -69 140 -182 193 -251 200 -257 267 -350 267 -367 0 -22
51 -45 71 -32 8 5 42 9 77 9 60 0 82 12 43 25 -41 13 -78 70 -90 137 -14 84
-15 911 -1 906 9 -3 70 -101 365 -585 58 -95 93 -143 104 -143 15 0 150 210
227 355 33 61 210 357 228 380 14 18 15 -27 16 -472 0 -324 -4 -501 -11 -520
-5 -15 -22 -40 -37 -55 l-26 -28 142 0 c129 0 169 8 127 24 -9 3 -24 23 -33
43 -15 34 -17 87 -17 523 0 459 1 488 20 540 14 39 29 61 52 75 18 11 32 23
33 28 0 4 -44 7 -99 7 l-98 0 -154 -257 c-84 -142 -184 -312 -223 -377 -39
-65 -75 -119 -80 -120 -6 -1 -47 60 -92 134 -45 74 -100 164 -122 200 -22 36
-51 85 -65 110 -14 25 -61 104 -105 175 l-80 130 -126 3 c-69 1 -126 -1 -126
-5 0 -5 16 -17 35 -27 22 -12 43 -35 57 -65 23 -45 23 -53 26 -468 4 -455 3
-460 -45 -390 -13 17 -33 45 -45 62 -58 75 -269 349 -333 430 -39 50 -84 108
-101 130 -35 48 -187 245 -229 297 l-30 38 -82 0 c-47 0 -83 -4 -83 -10z"/>
<path d="M348 676 c-11 -26 -5 -56 12 -56 5 0 10 18 10 40 0 46 -6 50 -22 16z"/>
<path d="M467 668 c-13 -18 -33 -54 -43 -80 -10 -27 -24 -48 -31 -48 -16 0
-27 -40 -14 -53 7 -7 13 -2 20 16 39 103 88 187 108 187 7 0 10 -7 7 -15 -4
-9 0 -15 10 -15 19 0 21 11 4 28 -19 19 -35 14 -61 -20z"/>
<path d="M1542 673 c-15 -27 -19 -67 -7 -73 14 -8 40 69 27 82 -7 7 -13 4 -20
-9z"/>
<path d="M1625 649 c-12 -22 -14 -38 -7 -57 8 -25 9 -24 25 25 20 60 20 63 7
63 -5 0 -17 -14 -25 -31z"/>
<path d="M605 617 c-8 -21 -20 -37 -25 -37 -6 0 -5 -8 2 -20 10 -15 10 -25 2
-38 -10 -15 -7 -20 12 -29 22 -10 23 -9 18 12 -8 34 12 65 44 66 l27 1 -25 7
c-18 5 -25 14 -25 33 0 42 -14 44 -30 5z"/>
<path d="M892 633 c-5 -10 -13 -39 -16 -66 -5 -35 -14 -52 -32 -64 -29 -19
-25 -30 4 -12 16 10 24 10 35 1 12 -10 14 -2 11 54 -2 54 0 65 11 60 10 -3 15
1 15 14 0 26 -17 34 -28 13z"/>
<path d="M2211 608 c-7 -18 -21 -51 -32 -72 -14 -30 -16 -42 -8 -53 10 -11 15
-11 31 4 14 13 21 14 30 5 7 -7 26 -11 43 -11 27 2 27 2 5 6 -14 3 -29 9 -34
14 -6 5 -18 9 -28 9 -23 0 -22 2 2 50 21 41 26 80 11 80 -5 0 -14 -15 -20 -32z"/>
<path d="M321 594 c0 -11 3 -14 6 -6 3 7 2 16 -1 19 -3 4 -6 -2 -5 -13z"/>
<path d="M372 570 c0 -14 2 -19 5 -12 2 6 2 18 0 25 -3 6 -5 1 -5 -13z"/>
<path d="M306 553 c-6 -14 -5 -15 5 -6 7 7 10 15 7 18 -3 3 -9 -2 -12 -12z"/>
<path d="M1547 539 c-15 -17 -25 -34 -22 -40 9 -13 23 -2 41 33 21 40 15 43
-19 7z"/>
<path d="M1831 551 c-12 -8 -12 -12 -2 -25 12 -15 15 -15 27 1 7 10 14 21 14
26 0 10 -22 9 -39 -2z"/>
<path d="M1460 515 c-19 -19 -29 -35 -24 -35 11 0 45 34 58 58 12 21 1 14 -34
-23z"/>
<path d="M1611 534 c0 -11 3 -14 6 -6 3 7 2 16 -1 19 -3 4 -6 -2 -5 -13z"/>
<path d="M2024 525 l-41 -22 28 -10 c26 -10 29 -9 29 9 0 11 8 22 20 25 11 3
20 9 20 14 0 12 -8 10 -56 -16z"/>
<path d="M447 529 c-9 -6 -17 -21 -17 -34 0 -26 14 -33 25 -15 4 6 16 8 27 4
19 -6 19 -5 2 23 -10 15 -18 29 -19 30 0 1 -8 -3 -18 -8z"/>
<path d="M1118 524 c-33 -17 -35 -25 -8 -41 13 -9 21 -9 26 -2 3 6 17 8 31 4
l25 -6 -22 31 c-12 16 -22 30 -23 30 -1 -1 -14 -8 -29 -16z"/>
<path d="M1671 531 c-7 -5 -10 -14 -7 -20 4 -6 3 -10 -2 -9 -10 3 -12 -1 -12
-22 0 -7 6 -7 19 0 11 5 27 7 37 3 15 -6 15 -3 -2 23 -10 16 -18 30 -19 31 0
1 -7 -2 -14 -6z"/>
<path d="M283 517 c-4 -7 -17 -19 -28 -25 -15 -9 -16 -11 -4 -12 18 0 55 37
47 46 -4 3 -10 -1 -15 -9z"/>
<path d="M689 504 c-32 -24 -32 -25 -8 -19 16 4 30 2 34 -5 5 -8 10 -8 21 1 7
6 21 9 29 5 21 -8 19 7 -3 27 -25 22 -32 22 -73 -9z"/>
<path d="M975 504 c-16 -13 -25 -24 -18 -24 6 0 15 5 18 10 4 7 13 7 26 0 20
-11 22 -6 11 22 -6 14 -10 14 -37 -8z"/>
<path d="M1369 514 c-9 -11 -10 -20 -2 -32 11 -19 53 -29 53 -13 0 6 -11 11
-25 11 -31 0 -32 14 -3 34 17 12 18 16 6 16 -8 0 -21 -7 -29 -16z"/>
<path d="M2324 516 c-19 -15 -19 -15 1 -30 13 -9 24 -11 31 -5 6 5 19 6 29 3
17 -7 17 -6 0 19 -20 31 -33 33 -61 13z"/>
<path d="M1925 510 c-3 -5 -16 -10 -28 -10 -21 -1 -21 -1 -4 -15 17 -12 18
-18 7 -50 -7 -20 -9 -39 -5 -43 10 -11 34 27 41 66 4 18 13 36 20 39 8 3 14 9
14 14 0 12 -37 11 -45 -1z"/>
<path d="M1240 495 c-14 -8 -19 -14 -10 -14 8 0 24 6 34 14 25 19 9 19 -24 0z"/>
<path d="M1770 495 c-14 -8 -19 -14 -10 -14 8 0 24 6 34 14 25 19 9 19 -24 0z"/>
<path d="M2450 495 c-14 -8 -19 -14 -10 -14 8 0 24 6 34 14 25 19 9 19 -24 0z"/>
<path d="M545 490 c-3 -5 -1 -10 4 -10 6 0 11 5 11 10 0 6 -2 10 -4 10 -3 0
-8 -4 -11 -10z"/>
<path d="M2128 483 c7 -3 16 -2 19 1 4 3 -2 6 -13 5 -11 0 -14 -3 -6 -6z"/>
<path d="M915 470 c3 -5 8 -10 11 -10 2 0 4 5 4 10 0 6 -5 10 -11 10 -5 0 -7
-4 -4 -10z"/>
</g>
</svg>
